<svg width="20" height="20" viewBox="0 0 20 20" fill="none" xmlns="http://www.w3.org/2000/svg">
<path d="M16.3571 10.1429C16.5276 10.1429 16.6912 10.0751 16.8118 9.95457C16.9323 9.83401 17 9.6705 17 9.5V4.35714C16.9955 3.73338 16.7457 3.13644 16.3046 2.69536C15.8635 2.25428 15.2666 2.00449 14.6429 2H4.35719C3.73204 2 3.13246 2.24834 2.69041 2.69039C2.24837 3.13244 2.00006 3.73199 2.00006 4.35714V14.6429C1.99788 14.953 2.05739 15.2605 2.17511 15.5474C2.29282 15.8344 2.46645 16.095 2.68581 16.3143C3.13083 16.7542 3.73146 17.0006 4.35719 17H9.50003C9.67052 17 9.83409 16.9323 9.95465 16.8117C10.0752 16.6912 10.1429 16.5276 10.1429 16.3571V10.1429H16.3571ZM15.3972 3.60285C15.498 3.7008 15.5781 3.81809 15.6326 3.94769C15.6871 4.07729 15.7148 4.21655 15.7143 4.35714V8.85714H10.1429V3.28571H14.6429C14.7835 3.28516 14.9227 3.31297 15.0523 3.36746C15.1819 3.42195 15.2992 3.502 15.3972 3.60285ZM3.59432 3.60285C3.79653 3.40021 4.07092 3.28615 4.35719 3.28571H8.85717V8.85714H3.28577V4.35714C3.28776 4.21617 3.31756 4.07697 3.37345 3.94754C3.42934 3.8181 3.51024 3.70097 3.61148 3.60285H3.59432ZM8.85717 15.7143H4.35719C4.07303 15.7143 3.80049 15.6014 3.59956 15.4005C3.39863 15.1995 3.28577 14.927 3.28577 14.6429V10.1429H8.85717V15.7143Z" fill="#101727"/>
<path d="M17.7006 14.0553C17.6032 13.952 17.4867 13.8709 17.3581 13.8169C17.2296 13.763 17.0919 13.7373 16.9535 13.7417H16.7891V12.8555C16.7896 12.6094 16.7436 12.3655 16.6538 12.1381C16.5641 11.9106 16.4324 11.7041 16.2663 11.5303C15.9259 11.1899 15.4738 11 15.0038 11C14.5337 11 14.0816 11.1899 13.7413 11.5303C13.5724 11.7023 13.4384 11.9084 13.3473 12.1361C13.2561 12.3638 13.2097 12.6085 13.2109 12.8555V13.7417H13.0465C12.9083 13.7382 12.7708 13.7643 12.6424 13.8182C12.514 13.8721 12.3974 13.9528 12.2995 14.0553C12.2011 14.1575 12.1237 14.2799 12.0723 14.4148C12.0209 14.5497 11.9965 14.6943 12.0007 14.8395V16.8941C11.9956 17.0395 12.0196 17.1843 12.0711 17.3194C12.1225 17.4544 12.2003 17.5767 12.2995 17.6783C12.397 17.7819 12.5134 17.8638 12.6418 17.919C12.7701 17.9743 12.9078 18.0017 13.0465 17.9998H16.9535C17.0924 18.0026 17.2303 17.9756 17.3588 17.9203C17.4873 17.865 17.6036 17.7826 17.7006 17.6783C17.7997 17.5767 17.8775 17.4544 17.9289 17.3194C17.9804 17.1843 18.0044 17.0395 17.9993 16.8941V14.816C17.9996 14.6748 17.9733 14.535 17.9221 14.4045C17.8708 14.2739 17.7955 14.1553 17.7006 14.0553ZM15.3997 16.1805C15.3997 16.2845 15.3603 16.3842 15.2903 16.4577C15.2202 16.5313 15.1252 16.5726 15.0261 16.5726C14.9271 16.5726 14.8321 16.5313 14.7621 16.4577C14.692 16.3842 14.6526 16.2845 14.6526 16.1805V15.4982C14.6526 15.3943 14.692 15.2945 14.7621 15.221C14.8321 15.1475 14.9271 15.1062 15.0261 15.1062C15.1246 15.1082 15.2185 15.1501 15.2881 15.2232C15.3578 15.2963 15.3978 15.3949 15.3997 15.4982V16.1805ZM15.8404 13.7103H14.2119V12.8555C14.2108 12.7432 14.2314 12.6317 14.2725 12.5279C14.3135 12.4241 14.3743 12.3302 14.4509 12.2517C14.6063 12.0973 14.8122 12.0112 15.0261 12.0112C15.2401 12.0112 15.446 12.0973 15.6014 12.2517C15.678 12.3302 15.7388 12.4241 15.7798 12.5279C15.8209 12.6317 15.8415 12.7432 15.8404 12.8555V13.7103Z" fill="#101727"/>
</svg>
