<svg width="20" height="20" viewBox="0 0 20 20" fill="none" xmlns="http://www.w3.org/2000/svg">
<path d="M14.6562 3.3125H4.34375C3.77421 3.3125 3.3125 3.77421 3.3125 4.34375V14.6562C3.3125 15.2258 3.77421 15.6875 4.34375 15.6875H10.14V17H4.34375C3.04933 17 2 15.9507 2 14.6562V4.34375C2 3.04933 3.04933 2 4.34375 2H14.6562C15.9507 2 17 3.04933 17 4.34375V10.1077C16.6334 9.87526 16.1749 9.67643 15.6875 9.57402V4.34375C15.6875 3.77421 15.2258 3.3125 14.6562 3.3125Z" fill="#101727"/>
<path d="M14.1693 9.54998C14.1611 9.4068 14.1035 9.27122 14.0067 9.16921C13.902 9.05881 13.76 8.99674 13.6118 8.99674H10.5182C10.4449 8.99674 10.3723 9.01199 10.3046 9.04157C10.2368 9.07116 10.1752 9.11455 10.1233 9.16921C10.0714 9.22388 10.0303 9.28878 10.0023 9.3602C9.97419 9.43162 9.95978 9.50815 9.95978 9.58546C9.95978 9.66277 9.97419 9.7393 10.0023 9.81072C10.0303 9.88215 10.0714 9.94704 10.1233 10.0017C10.1752 10.0564 10.2368 10.0998 10.3046 10.1293C10.3723 10.1589 10.4449 10.1742 10.5182 10.1742H12.55C13.0233 9.81588 13.5658 9.63006 14.1693 9.54998Z" fill="#101727"/>
<path d="M11.7711 11.0255H10.5182C10.4449 11.0255 10.3723 11.0407 10.3046 11.0703C10.2368 11.0999 10.1752 11.1433 10.1233 11.1979C10.0714 11.2526 10.0303 11.3175 10.0023 11.3889C9.97419 11.4603 9.95978 11.5369 9.95978 11.6142C9.95978 11.6915 9.97419 11.7681 10.0023 11.8395C10.0303 11.9109 10.0714 11.9758 10.1233 12.0305C10.1752 12.0852 10.2368 12.1285 10.3046 12.1581C10.3723 12.1877 10.4449 12.2029 10.5182 12.2029H11.1957C11.2981 11.9274 11.4188 11.6623 11.5 11.5C11.5858 11.3284 11.6762 11.1705 11.7711 11.0255Z" fill="#101727"/>
<path d="M13.4313 4.8125H5.56869C5.15106 4.8125 4.8125 5.16933 4.8125 5.6095V6.63293C4.8125 7.0731 5.15106 7.42993 5.56869 7.42993H13.4313C13.8489 7.42993 14.1875 7.0731 14.1875 6.63293V5.6095C14.1875 5.16933 13.8489 4.8125 13.4313 4.8125Z" fill="#101727"/>
<path d="M5.6718 8.92431H7.82006C8.29464 8.92431 8.67937 9.3298 8.67937 9.82999V13.2184C8.67937 13.7186 8.29464 14.1241 7.82006 14.1241H5.6718C5.19722 14.1241 4.8125 13.7186 4.8125 13.2184V9.82999C4.8125 9.3298 5.19722 8.92431 5.6718 8.92431Z" fill="#101727"/>
<path d="M17.6756 14.0553C17.5701 13.952 17.4439 13.8709 17.3046 13.8169C17.1654 13.763 17.0162 13.7373 16.8663 13.7417H16.6882V12.8555C16.6887 12.6094 16.6389 12.3655 16.5416 12.1381C16.4444 11.9106 16.3017 11.7041 16.1218 11.5303C15.7531 11.1899 15.2633 11 14.7541 11C14.2448 11 13.7551 11.1899 13.3864 11.5303C13.2035 11.7023 13.0583 11.9084 12.9595 12.1361C12.8608 12.3638 12.8106 12.6085 12.8118 12.8555V13.7417H12.6337C12.484 13.7382 12.335 13.7643 12.1959 13.8182C12.0569 13.8721 11.9305 13.9528 11.8244 14.0553C11.7178 14.1575 11.6341 14.2799 11.5784 14.4148C11.5227 14.5497 11.4962 14.6943 11.5007 14.8395V16.8941C11.4953 17.0395 11.5212 17.1843 11.577 17.3194C11.6327 17.4544 11.717 17.5767 11.8244 17.6783C11.9301 17.7819 12.0562 17.8638 12.1953 17.919C12.3343 17.9743 12.4835 18.0017 12.6337 17.9998H16.8663C17.0167 18.0026 17.1661 17.9756 17.3053 17.9203C17.4445 17.865 17.5705 17.7826 17.6756 17.6783C17.783 17.5767 17.8673 17.4544 17.923 17.3194C17.9788 17.1843 18.0047 17.0395 17.9993 16.8941V14.816C17.9996 14.6748 17.9711 14.535 17.9156 14.4045C17.86 14.2739 17.7785 14.1553 17.6756 14.0553ZM15.183 16.1805C15.183 16.2845 15.1404 16.3842 15.0645 16.4577C14.9886 16.5313 14.8856 16.5726 14.7783 16.5726C14.671 16.5726 14.5681 16.5313 14.4922 16.4577C14.4163 16.3842 14.3737 16.2845 14.3737 16.1805V15.4982C14.3737 15.3943 14.4163 15.2945 14.4922 15.221C14.5681 15.1475 14.671 15.1062 14.7783 15.1062C14.885 15.1082 14.9867 15.1501 15.0622 15.2232C15.1376 15.2963 15.1809 15.3949 15.183 15.4982V16.1805ZM15.6605 13.7103H13.8962V12.8555C13.895 12.7432 13.9173 12.6317 13.9618 12.5279C14.0063 12.4241 14.0721 12.3302 14.1552 12.2517C14.3235 12.0973 14.5465 12.0112 14.7783 12.0112C15.0101 12.0112 15.2332 12.0973 15.4015 12.2517C15.4846 12.3302 15.5503 12.4241 15.5948 12.5279C15.6393 12.6317 15.6617 12.7432 15.6605 12.8555V13.7103Z" fill="#101727"/>
</svg>
