<svg width="20" height="20" viewBox="0 0 20 20" fill="none" xmlns="http://www.w3.org/2000/svg">
<path fill-rule="evenodd" clip-rule="evenodd" d="M15.5431 2.17611C15.8285 2.29382 16.0878 2.46705 16.3057 2.68576C16.5262 2.9046 16.7012 3.16502 16.8203 3.45193C16.9395 3.73883 17.0006 4.04652 17 4.3572V10.1077C16.6401 9.87952 16.1917 9.68374 15.7143 9.57975V7.79433H10.1429V11.2229H11.6494C11.5982 11.311 11.5483 11.4033 11.5 11.5C11.3879 11.7242 11.2004 12.1443 11.0897 12.5172H10.1429V13.9966L10.14 14V17H4.3572C3.73205 17 3.13247 16.7517 2.69042 16.3096C2.24837 15.8676 2.00006 15.268 2.00006 14.6429V4.3572C1.99778 4.04702 2.0572 3.73949 2.17485 3.45248C2.2925 3.16547 2.46601 2.90471 2.68535 2.68537C2.90468 2.46604 3.16544 2.2925 3.45245 2.17485C3.73946 2.0572 4.04702 1.99778 4.3572 2.00006H14.6429C14.9516 1.99855 15.2576 2.05839 15.5431 2.17611ZM4.3572 15.7143H8.85718V12.5086H3.28577V14.6429C3.28708 14.9248 3.39769 15.1952 3.59433 15.3972C3.69388 15.4983 3.81268 15.5784 3.94369 15.6329C4.07471 15.6874 4.21531 15.715 4.3572 15.7143ZM3.28577 11.2229H8.85718V7.79433H3.28577V11.2229Z" fill="#101727"/>
<path d="M17.6756 14.0553C17.5701 13.952 17.4439 13.8709 17.3046 13.8169C17.1654 13.763 17.0162 13.7373 16.8663 13.7417H16.6882V12.8555C16.6887 12.6094 16.6389 12.3655 16.5416 12.1381C16.4444 11.9106 16.3017 11.7041 16.1218 11.5303C15.7531 11.1899 15.2633 11 14.7541 11C14.2448 11 13.7551 11.1899 13.3864 11.5303C13.2035 11.7023 13.0583 11.9084 12.9595 12.1361C12.8608 12.3638 12.8106 12.6085 12.8118 12.8555V13.7417H12.6337C12.484 13.7382 12.335 13.7643 12.1959 13.8182C12.0569 13.8721 11.9305 13.9528 11.8244 14.0553C11.7178 14.1575 11.6341 14.2799 11.5784 14.4148C11.5227 14.5497 11.4962 14.6943 11.5007 14.8395V16.8941C11.4953 17.0395 11.5212 17.1843 11.577 17.3194C11.6327 17.4544 11.717 17.5767 11.8244 17.6783C11.9301 17.7819 12.0562 17.8638 12.1953 17.919C12.3343 17.9743 12.4835 18.0017 12.6337 17.9998H16.8663C17.0167 18.0026 17.1661 17.9756 17.3053 17.9203C17.4445 17.865 17.5705 17.7826 17.6756 17.6783C17.783 17.5767 17.8673 17.4544 17.923 17.3194C17.9788 17.1843 18.0047 17.0395 17.9993 16.8941V14.816C17.9996 14.6748 17.9711 14.535 17.9156 14.4045C17.86 14.2739 17.7785 14.1553 17.6756 14.0553ZM15.183 16.1805C15.183 16.2845 15.1404 16.3842 15.0645 16.4577C14.9886 16.5313 14.8856 16.5726 14.7783 16.5726C14.671 16.5726 14.5681 16.5313 14.4922 16.4577C14.4163 16.3842 14.3737 16.2845 14.3737 16.1805V15.4982C14.3737 15.3943 14.4163 15.2945 14.4922 15.221C14.5681 15.1475 14.671 15.1062 14.7783 15.1062C14.885 15.1082 14.9867 15.1501 15.0622 15.2232C15.1376 15.2963 15.1809 15.3949 15.183 15.4982V16.1805ZM15.6605 13.7103H13.8962V12.8555C13.895 12.7432 13.9173 12.6317 13.9618 12.5279C14.0063 12.4241 14.0721 12.3302 14.1552 12.2517C14.3235 12.0973 14.5465 12.0112 14.7783 12.0112C15.0101 12.0112 15.2332 12.0973 15.4015 12.2517C15.4846 12.3302 15.5503 12.4241 15.5948 12.5279C15.6393 12.6317 15.6617 12.7432 15.6605 12.8555V13.7103Z" fill="#101727"/>
</svg>
