<svg fill="none" height="48" viewBox="0 0 48 48" width="48" xmlns="http://www.w3.org/2000/svg"><path d="m0 0h48v48h-48z" fill="#fff" fill-opacity=".01"/><g fill="#000"><path d="m44 36h-8v8h8z"/><path d="m28 36h-8v8h8z"/><path d="m12 36h-8v8h8z"/><path d="m44 20h-8v8h8z"/><path d="m28 20h-8v8h8z"/><path d="m12 20h-8v8h8z"/><path d="m44 4h-8v8h8z"/><path d="m28 4h-8v8h8z"/><path d="m12 4h-8v8h8z"/><path d="m20 12h-8v8h8z"/><path d="m20 28h-8v8h8z"/><path d="m36 12h-8v8h8z"/><path d="m36 28h-8v8h8z"/></g></svg>